<?xml version="1.0" encoding="UTF-8"?>
<svg xmlns="http://www.w3.org/2000/svg" viewBox="0 0 100 100" width="100" height="100">
  <!-- Small Stone - Top-down view (~0.15m diameter) -->

  <!-- Main stone body (irregular rounded shape) -->
  <path d="M50,18
           C68,20 82,32 84,50
           C86,68 74,82 52,85
           C32,87 18,74 16,52
           C14,32 28,18 50,18 Z"
        fill="#7a7a7a"/>

  <!-- Shadow/depth on lower edge (simplified to avoid tessellation issues) -->
  <ellipse cx="52" cy="70" rx="22" ry="12" fill="#5a5a5a"/>

  <!-- Lighter highlight area -->
  <path d="M45,25
           C58,24 70,32 72,44
           C74,54 68,62 56,64
           C46,66 36,60 34,48
           C32,38 36,28 45,25 Z"
        fill="#8a8a8a"/>

  <!-- Small highlight spot (top lighting) -->
  <ellipse cx="48" cy="35" rx="8" ry="6" fill="#9a9a9a" opacity="0.7"/>

  <!-- Subtle texture lines -->
  <path d="M35,45 Q50,42 65,48" stroke="#6a6a6a" stroke-width="1" fill="none" opacity="0.5"/>
  <path d="M40,58 Q52,55 62,60" stroke="#6a6a6a" stroke-width="0.8" fill="none" opacity="0.4"/>
</svg>
