<?xml version="1.0" encoding="UTF-8"?>
<svg xmlns="http://www.w3.org/2000/svg" viewBox="0 0 100 100" width="100" height="100">
  <!-- Woody Bush - Top-down view (~0.6m diameter) -->
  <!-- Sparse foliage with visible woody branches (using filled shapes, not strokes) -->

  <!-- Main bush body (irregular brownish-green, sparser than berry bush) -->
  <path d="M50,15
           C68,18 80,30 82,48
           C84,66 72,80 52,85
           C32,88 18,75 15,55
           C12,38 28,20 50,15 Z"
        fill="#4a6a3a"/>

  <!-- Woody branch patches (brown areas showing through) -->
  <path d="M35,25
           C42,22 52,24 54,32
           C56,40 48,46 38,44
           C30,42 28,32 35,25 Z"
        fill="#5d4a2a"/>

  <path d="M62,30
           C70,28 78,34 76,44
           C74,52 66,56 58,52
           C52,48 54,34 62,30 Z"
        fill="#6b5533"/>

  <path d="M68,55
           C76,54 82,62 80,70
           C78,78 70,80 62,76
           C56,72 60,58 68,55 Z"
        fill="#5d4a2a"/>

  <path d="M45,65
           C54,64 62,72 58,80
           C54,86 44,88 38,82
           C32,76 36,68 45,65 Z"
        fill="#6b5533"/>

  <path d="M25,50
           C32,48 40,54 38,64
           C36,72 28,76 20,72
           C14,68 18,54 25,50 Z"
        fill="#5d4a2a"/>

  <!-- Sparse foliage patches (muted green, smaller than berry bush) -->
  <ellipse cx="40" cy="30" rx="12" ry="10" fill="#5a7a4a"/>
  <ellipse cx="65" cy="40" rx="10" ry="12" fill="#4a6a3a"/>
  <ellipse cx="70" cy="65" rx="11" ry="10" fill="#5a7a4a"/>
  <ellipse cx="48" cy="75" rx="10" ry="9" fill="#4a6a3a"/>
  <ellipse cx="28" cy="60" rx="11" ry="10" fill="#5a7a4a"/>

  <!-- Central foliage (smaller core) -->
  <ellipse cx="50" cy="50" rx="14" ry="13" fill="#5a8a4a"/>

  <!-- Small leaf highlights -->
  <ellipse cx="42" cy="35" rx="5" ry="4" fill="#6a9a5a" opacity="0.7"/>
  <ellipse cx="62" cy="45" rx="4" ry="5" fill="#6a9a5a" opacity="0.7"/>
  <ellipse cx="52" cy="55" rx="5" ry="4" fill="#6a9a5a" opacity="0.8"/>
</svg>
