<?xml version="1.0" encoding="UTF-8"?>
<!-- Grass Pattern - Standard temperate grassland (Rimworld-style)
     512x512 SVG covering 8x8 game tiles (64px per tile)
     VISUAL STYLE: Green grass base with dirt patches showing through
     Must tile seamlessly (elements at edges wrap)
-->
<svg xmlns="http://www.w3.org/2000/svg" viewBox="0 0 512 512" width="512" height="512">
  <!-- Green grass base - muted natural green -->
  <rect width="512" height="512" fill="#5a7a4a"/>

  <!-- Dirt patches showing through the grass (irregular shapes) -->
  <ellipse cx="70" cy="80" rx="35" ry="25" fill="#8B7355" opacity="0.5"/>
  <ellipse cx="200" cy="50" rx="25" ry="18" fill="#7A6345" opacity="0.45"/>
  <ellipse cx="380" cy="100" rx="40" ry="28" fill="#8B7355" opacity="0.5"/>
  <ellipse cx="480" cy="60" rx="30" ry="22" fill="#7A6345" opacity="0.4"/>
  <ellipse cx="30" cy="180" rx="28" ry="20" fill="#8B7355" opacity="0.45"/>
  <ellipse cx="150" cy="160" rx="22" ry="16" fill="#7A6345" opacity="0.5"/>
  <ellipse cx="320" cy="180" rx="35" ry="25" fill="#8B7355" opacity="0.45"/>
  <ellipse cx="450" cy="200" rx="30" ry="22" fill="#7A6345" opacity="0.5"/>
  <ellipse cx="80" cy="280" rx="32" ry="24" fill="#8B7355" opacity="0.5"/>
  <ellipse cx="240" cy="260" rx="28" ry="20" fill="#7A6345" opacity="0.45"/>
  <ellipse cx="400" cy="300" rx="38" ry="26" fill="#8B7355" opacity="0.5"/>
  <ellipse cx="500" cy="280" rx="25" ry="18" fill="#7A6345" opacity="0.4"/>
  <ellipse cx="60" cy="380" rx="30" ry="22" fill="#8B7355" opacity="0.45"/>
  <ellipse cx="180" cy="350" rx="35" ry="25" fill="#7A6345" opacity="0.5"/>
  <ellipse cx="350" cy="400" rx="32" ry="24" fill="#8B7355" opacity="0.5"/>
  <ellipse cx="480" cy="380" rx="28" ry="20" fill="#7A6345" opacity="0.45"/>
  <ellipse cx="100" cy="480" rx="35" ry="25" fill="#8B7355" opacity="0.5"/>
  <ellipse cx="280" cy="460" rx="30" ry="22" fill="#7A6345" opacity="0.45"/>
  <ellipse cx="420" cy="500" rx="38" ry="28" fill="#8B7355" opacity="0.5"/>

  <!-- Grass color variation patches (different green tones) -->
  <ellipse cx="120" cy="100" rx="45" ry="35" fill="#4a6a3a" opacity="0.4"/>
  <ellipse cx="300" cy="60" rx="50" ry="38" fill="#6a8a5a" opacity="0.35"/>
  <ellipse cx="450" cy="140" rx="55" ry="40" fill="#4a6a3a" opacity="0.35"/>
  <ellipse cx="50" cy="240" rx="48" ry="36" fill="#6a8a5a" opacity="0.4"/>
  <ellipse cx="200" cy="220" rx="52" ry="38" fill="#4a6a3a" opacity="0.35"/>
  <ellipse cx="380" cy="250" rx="45" ry="35" fill="#6a8a5a" opacity="0.35"/>
  <ellipse cx="130" cy="320" rx="50" ry="38" fill="#4a6a3a" opacity="0.4"/>
  <ellipse cx="280" cy="340" rx="48" ry="36" fill="#6a8a5a" opacity="0.35"/>
  <ellipse cx="450" cy="320" rx="52" ry="40" fill="#4a6a3a" opacity="0.35"/>
  <ellipse cx="50" cy="440" rx="45" ry="35" fill="#6a8a5a" opacity="0.4"/>
  <ellipse cx="220" cy="420" rx="50" ry="38" fill="#4a6a3a" opacity="0.35"/>
  <ellipse cx="380" cy="470" rx="55" ry="42" fill="#6a8a5a" opacity="0.35"/>

  <!-- Dense grass blade clusters - thicker strokes, more coverage -->
  <!-- Row 1 -->
  <g stroke="#3d5a2f" stroke-linecap="round" opacity="0.7">
    <path d="M20,30 l0,-10" stroke-width="3"/>
    <path d="M28,35 l1,-9" stroke-width="2.5"/>
    <path d="M36,28 l-1,-8" stroke-width="2.8"/>
    <path d="M50,32 l0.5,-10" stroke-width="3"/>
    <path d="M65,30 l-0.5,-9" stroke-width="2.5"/>
    <path d="M80,35 l0,-8" stroke-width="2.8"/>
    <path d="M95,28 l1,-10" stroke-width="3"/>
    <path d="M110,33 l0,-9" stroke-width="2.5"/>
    <path d="M128,30 l-1,-8" stroke-width="2.8"/>
    <path d="M145,35 l0.5,-10" stroke-width="3"/>
    <path d="M162,28 l0,-9" stroke-width="2.5"/>
    <path d="M180,32 l-0.5,-8" stroke-width="2.8"/>
    <path d="M198,30 l1,-10" stroke-width="3"/>
    <path d="M215,35 l0,-9" stroke-width="2.5"/>
    <path d="M232,28 l-1,-8" stroke-width="2.8"/>
    <path d="M250,33 l0.5,-10" stroke-width="3"/>
    <path d="M268,30 l0,-9" stroke-width="2.5"/>
    <path d="M285,35 l-0.5,-8" stroke-width="2.8"/>
    <path d="M302,28 l1,-10" stroke-width="3"/>
    <path d="M320,32 l0,-9" stroke-width="2.5"/>
    <path d="M338,30 l-1,-8" stroke-width="2.8"/>
    <path d="M355,35 l0.5,-10" stroke-width="3"/>
    <path d="M372,28 l0,-9" stroke-width="2.5"/>
    <path d="M390,33 l-0.5,-8" stroke-width="2.8"/>
    <path d="M408,30 l1,-10" stroke-width="3"/>
    <path d="M425,35 l0,-9" stroke-width="2.5"/>
    <path d="M442,28 l-1,-8" stroke-width="2.8"/>
    <path d="M460,32 l0.5,-10" stroke-width="3"/>
    <path d="M478,30 l0,-9" stroke-width="2.5"/>
    <path d="M495,35 l-0.5,-8" stroke-width="2.8"/>
  </g>

  <!-- Row 2 -->
  <g stroke="#4a6a3a" stroke-linecap="round" opacity="0.65">
    <path d="M10,70 l0,-9" stroke-width="2.8"/>
    <path d="M25,75 l1,-10" stroke-width="3"/>
    <path d="M42,68 l-0.5,-8" stroke-width="2.5"/>
    <path d="M58,72 l0,-9" stroke-width="2.8"/>
    <path d="M75,78 l0.5,-10" stroke-width="3"/>
    <path d="M92,70 l-1,-8" stroke-width="2.5"/>
    <path d="M108,75 l0,-9" stroke-width="2.8"/>
    <path d="M125,68 l1,-10" stroke-width="3"/>
    <path d="M142,73 l-0.5,-8" stroke-width="2.5"/>
    <path d="M158,78 l0,-9" stroke-width="2.8"/>
    <path d="M175,70 l0.5,-10" stroke-width="3"/>
    <path d="M192,75 l-1,-8" stroke-width="2.5"/>
    <path d="M208,68 l0,-9" stroke-width="2.8"/>
    <path d="M225,73 l1,-10" stroke-width="3"/>
    <path d="M242,78 l-0.5,-8" stroke-width="2.5"/>
    <path d="M258,70 l0,-9" stroke-width="2.8"/>
    <path d="M275,75 l0.5,-10" stroke-width="3"/>
    <path d="M292,68 l-1,-8" stroke-width="2.5"/>
    <path d="M308,73 l0,-9" stroke-width="2.8"/>
    <path d="M325,78 l1,-10" stroke-width="3"/>
    <path d="M342,70 l-0.5,-8" stroke-width="2.5"/>
    <path d="M358,75 l0,-9" stroke-width="2.8"/>
    <path d="M375,68 l0.5,-10" stroke-width="3"/>
    <path d="M392,73 l-1,-8" stroke-width="2.5"/>
    <path d="M408,78 l0,-9" stroke-width="2.8"/>
    <path d="M425,70 l1,-10" stroke-width="3"/>
    <path d="M442,75 l-0.5,-8" stroke-width="2.5"/>
    <path d="M458,68 l0,-9" stroke-width="2.8"/>
    <path d="M475,73 l0.5,-10" stroke-width="3"/>
    <path d="M492,78 l-1,-8" stroke-width="2.5"/>
  </g>

  <!-- Row 3-10 (similar dense pattern across the tile) -->
  <g stroke="#3d5a2f" stroke-linecap="round" opacity="0.7">
    <path d="M15,115 l0,-10" stroke-width="3"/><path d="M35,120 l1,-9" stroke-width="2.5"/><path d="M55,112 l-1,-8" stroke-width="2.8"/>
    <path d="M75,118 l0.5,-10" stroke-width="3"/><path d="M95,115 l0,-9" stroke-width="2.5"/><path d="M115,122 l-0.5,-8" stroke-width="2.8"/>
    <path d="M135,112 l1,-10" stroke-width="3"/><path d="M155,118 l0,-9" stroke-width="2.5"/><path d="M175,115 l-1,-8" stroke-width="2.8"/>
    <path d="M195,120 l0.5,-10" stroke-width="3"/><path d="M215,112 l0,-9" stroke-width="2.5"/><path d="M235,118 l-0.5,-8" stroke-width="2.8"/>
    <path d="M255,115 l1,-10" stroke-width="3"/><path d="M275,122 l0,-9" stroke-width="2.5"/><path d="M295,112 l-1,-8" stroke-width="2.8"/>
    <path d="M315,118 l0.5,-10" stroke-width="3"/><path d="M335,115 l0,-9" stroke-width="2.5"/><path d="M355,120 l-0.5,-8" stroke-width="2.8"/>
    <path d="M375,112 l1,-10" stroke-width="3"/><path d="M395,118 l0,-9" stroke-width="2.5"/><path d="M415,115 l-1,-8" stroke-width="2.8"/>
    <path d="M435,122 l0.5,-10" stroke-width="3"/><path d="M455,112 l0,-9" stroke-width="2.5"/><path d="M475,118 l-0.5,-8" stroke-width="2.8"/>
    <path d="M495,115 l1,-10" stroke-width="3"/>
  </g>

  <g stroke="#4a6a3a" stroke-linecap="round" opacity="0.65">
    <path d="M8,160 l0,-9" stroke-width="2.8"/><path d="M28,165 l1,-10" stroke-width="3"/><path d="M48,158 l-0.5,-8" stroke-width="2.5"/>
    <path d="M68,162 l0,-9" stroke-width="2.8"/><path d="M88,168 l0.5,-10" stroke-width="3"/><path d="M108,160 l-1,-8" stroke-width="2.5"/>
    <path d="M128,165 l0,-9" stroke-width="2.8"/><path d="M148,158 l1,-10" stroke-width="3"/><path d="M168,163 l-0.5,-8" stroke-width="2.5"/>
    <path d="M188,168 l0,-9" stroke-width="2.8"/><path d="M208,160 l0.5,-10" stroke-width="3"/><path d="M228,165 l-1,-8" stroke-width="2.5"/>
    <path d="M248,158 l0,-9" stroke-width="2.8"/><path d="M268,163 l1,-10" stroke-width="3"/><path d="M288,168 l-0.5,-8" stroke-width="2.5"/>
    <path d="M308,160 l0,-9" stroke-width="2.8"/><path d="M328,165 l0.5,-10" stroke-width="3"/><path d="M348,158 l-1,-8" stroke-width="2.5"/>
    <path d="M368,163 l0,-9" stroke-width="2.8"/><path d="M388,168 l1,-10" stroke-width="3"/><path d="M408,160 l-0.5,-8" stroke-width="2.5"/>
    <path d="M428,165 l0,-9" stroke-width="2.8"/><path d="M448,158 l0.5,-10" stroke-width="3"/><path d="M468,163 l-1,-8" stroke-width="2.5"/>
    <path d="M488,168 l0,-9" stroke-width="2.8"/>
  </g>

  <g stroke="#3d5a2f" stroke-linecap="round" opacity="0.7">
    <path d="M12,205 l0,-10" stroke-width="3"/><path d="M32,210 l1,-9" stroke-width="2.5"/><path d="M52,202 l-1,-8" stroke-width="2.8"/>
    <path d="M72,208 l0.5,-10" stroke-width="3"/><path d="M92,205 l0,-9" stroke-width="2.5"/><path d="M112,212 l-0.5,-8" stroke-width="2.8"/>
    <path d="M132,202 l1,-10" stroke-width="3"/><path d="M152,208 l0,-9" stroke-width="2.5"/><path d="M172,205 l-1,-8" stroke-width="2.8"/>
    <path d="M192,210 l0.5,-10" stroke-width="3"/><path d="M212,202 l0,-9" stroke-width="2.5"/><path d="M232,208 l-0.5,-8" stroke-width="2.8"/>
    <path d="M252,205 l1,-10" stroke-width="3"/><path d="M272,212 l0,-9" stroke-width="2.5"/><path d="M292,202 l-1,-8" stroke-width="2.8"/>
    <path d="M312,208 l0.5,-10" stroke-width="3"/><path d="M332,205 l0,-9" stroke-width="2.5"/><path d="M352,210 l-0.5,-8" stroke-width="2.8"/>
    <path d="M372,202 l1,-10" stroke-width="3"/><path d="M392,208 l0,-9" stroke-width="2.5"/><path d="M412,205 l-1,-8" stroke-width="2.8"/>
    <path d="M432,212 l0.5,-10" stroke-width="3"/><path d="M452,202 l0,-9" stroke-width="2.5"/><path d="M472,208 l-0.5,-8" stroke-width="2.8"/>
    <path d="M492,205 l1,-10" stroke-width="3"/>
  </g>

  <g stroke="#4a6a3a" stroke-linecap="round" opacity="0.65">
    <path d="M5,250 l0,-9" stroke-width="2.8"/><path d="M25,255 l1,-10" stroke-width="3"/><path d="M45,248 l-0.5,-8" stroke-width="2.5"/>
    <path d="M65,252 l0,-9" stroke-width="2.8"/><path d="M85,258 l0.5,-10" stroke-width="3"/><path d="M105,250 l-1,-8" stroke-width="2.5"/>
    <path d="M125,255 l0,-9" stroke-width="2.8"/><path d="M145,248 l1,-10" stroke-width="3"/><path d="M165,253 l-0.5,-8" stroke-width="2.5"/>
    <path d="M185,258 l0,-9" stroke-width="2.8"/><path d="M205,250 l0.5,-10" stroke-width="3"/><path d="M225,255 l-1,-8" stroke-width="2.5"/>
    <path d="M245,248 l0,-9" stroke-width="2.8"/><path d="M265,253 l1,-10" stroke-width="3"/><path d="M285,258 l-0.5,-8" stroke-width="2.5"/>
    <path d="M305,250 l0,-9" stroke-width="2.8"/><path d="M325,255 l0.5,-10" stroke-width="3"/><path d="M345,248 l-1,-8" stroke-width="2.5"/>
    <path d="M365,253 l0,-9" stroke-width="2.8"/><path d="M385,258 l1,-10" stroke-width="3"/><path d="M405,250 l-0.5,-8" stroke-width="2.5"/>
    <path d="M425,255 l0,-9" stroke-width="2.8"/><path d="M445,248 l0.5,-10" stroke-width="3"/><path d="M465,253 l-1,-8" stroke-width="2.5"/>
    <path d="M485,258 l0,-9" stroke-width="2.8"/>
  </g>

  <g stroke="#3d5a2f" stroke-linecap="round" opacity="0.7">
    <path d="M18,295 l0,-10" stroke-width="3"/><path d="M38,300 l1,-9" stroke-width="2.5"/><path d="M58,292 l-1,-8" stroke-width="2.8"/>
    <path d="M78,298 l0.5,-10" stroke-width="3"/><path d="M98,295 l0,-9" stroke-width="2.5"/><path d="M118,302 l-0.5,-8" stroke-width="2.8"/>
    <path d="M138,292 l1,-10" stroke-width="3"/><path d="M158,298 l0,-9" stroke-width="2.5"/><path d="M178,295 l-1,-8" stroke-width="2.8"/>
    <path d="M198,300 l0.5,-10" stroke-width="3"/><path d="M218,292 l0,-9" stroke-width="2.5"/><path d="M238,298 l-0.5,-8" stroke-width="2.8"/>
    <path d="M258,295 l1,-10" stroke-width="3"/><path d="M278,302 l0,-9" stroke-width="2.5"/><path d="M298,292 l-1,-8" stroke-width="2.8"/>
    <path d="M318,298 l0.5,-10" stroke-width="3"/><path d="M338,295 l0,-9" stroke-width="2.5"/><path d="M358,300 l-0.5,-8" stroke-width="2.8"/>
    <path d="M378,292 l1,-10" stroke-width="3"/><path d="M398,298 l0,-9" stroke-width="2.5"/><path d="M418,295 l-1,-8" stroke-width="2.8"/>
    <path d="M438,302 l0.5,-10" stroke-width="3"/><path d="M458,292 l0,-9" stroke-width="2.5"/><path d="M478,298 l-0.5,-8" stroke-width="2.8"/>
    <path d="M498,295 l1,-10" stroke-width="3"/>
  </g>

  <g stroke="#4a6a3a" stroke-linecap="round" opacity="0.65">
    <path d="M10,340 l0,-9" stroke-width="2.8"/><path d="M30,345 l1,-10" stroke-width="3"/><path d="M50,338 l-0.5,-8" stroke-width="2.5"/>
    <path d="M70,342 l0,-9" stroke-width="2.8"/><path d="M90,348 l0.5,-10" stroke-width="3"/><path d="M110,340 l-1,-8" stroke-width="2.5"/>
    <path d="M130,345 l0,-9" stroke-width="2.8"/><path d="M150,338 l1,-10" stroke-width="3"/><path d="M170,343 l-0.5,-8" stroke-width="2.5"/>
    <path d="M190,348 l0,-9" stroke-width="2.8"/><path d="M210,340 l0.5,-10" stroke-width="3"/><path d="M230,345 l-1,-8" stroke-width="2.5"/>
    <path d="M250,338 l0,-9" stroke-width="2.8"/><path d="M270,343 l1,-10" stroke-width="3"/><path d="M290,348 l-0.5,-8" stroke-width="2.5"/>
    <path d="M310,340 l0,-9" stroke-width="2.8"/><path d="M330,345 l0.5,-10" stroke-width="3"/><path d="M350,338 l-1,-8" stroke-width="2.5"/>
    <path d="M370,343 l0,-9" stroke-width="2.8"/><path d="M390,348 l1,-10" stroke-width="3"/><path d="M410,340 l-0.5,-8" stroke-width="2.5"/>
    <path d="M430,345 l0,-9" stroke-width="2.8"/><path d="M450,338 l0.5,-10" stroke-width="3"/><path d="M470,343 l-1,-8" stroke-width="2.5"/>
    <path d="M490,348 l0,-9" stroke-width="2.8"/>
  </g>

  <g stroke="#3d5a2f" stroke-linecap="round" opacity="0.7">
    <path d="M15,385 l0,-10" stroke-width="3"/><path d="M35,390 l1,-9" stroke-width="2.5"/><path d="M55,382 l-1,-8" stroke-width="2.8"/>
    <path d="M75,388 l0.5,-10" stroke-width="3"/><path d="M95,385 l0,-9" stroke-width="2.5"/><path d="M115,392 l-0.5,-8" stroke-width="2.8"/>
    <path d="M135,382 l1,-10" stroke-width="3"/><path d="M155,388 l0,-9" stroke-width="2.5"/><path d="M175,385 l-1,-8" stroke-width="2.8"/>
    <path d="M195,390 l0.5,-10" stroke-width="3"/><path d="M215,382 l0,-9" stroke-width="2.5"/><path d="M235,388 l-0.5,-8" stroke-width="2.8"/>
    <path d="M255,385 l1,-10" stroke-width="3"/><path d="M275,392 l0,-9" stroke-width="2.5"/><path d="M295,382 l-1,-8" stroke-width="2.8"/>
    <path d="M315,388 l0.5,-10" stroke-width="3"/><path d="M335,385 l0,-9" stroke-width="2.5"/><path d="M355,390 l-0.5,-8" stroke-width="2.8"/>
    <path d="M375,382 l1,-10" stroke-width="3"/><path d="M395,388 l0,-9" stroke-width="2.5"/><path d="M415,385 l-1,-8" stroke-width="2.8"/>
    <path d="M435,392 l0.5,-10" stroke-width="3"/><path d="M455,382 l0,-9" stroke-width="2.5"/><path d="M475,388 l-0.5,-8" stroke-width="2.8"/>
    <path d="M495,385 l1,-10" stroke-width="3"/>
  </g>

  <g stroke="#4a6a3a" stroke-linecap="round" opacity="0.65">
    <path d="M8,430 l0,-9" stroke-width="2.8"/><path d="M28,435 l1,-10" stroke-width="3"/><path d="M48,428 l-0.5,-8" stroke-width="2.5"/>
    <path d="M68,432 l0,-9" stroke-width="2.8"/><path d="M88,438 l0.5,-10" stroke-width="3"/><path d="M108,430 l-1,-8" stroke-width="2.5"/>
    <path d="M128,435 l0,-9" stroke-width="2.8"/><path d="M148,428 l1,-10" stroke-width="3"/><path d="M168,433 l-0.5,-8" stroke-width="2.5"/>
    <path d="M188,438 l0,-9" stroke-width="2.8"/><path d="M208,430 l0.5,-10" stroke-width="3"/><path d="M228,435 l-1,-8" stroke-width="2.5"/>
    <path d="M248,428 l0,-9" stroke-width="2.8"/><path d="M268,433 l1,-10" stroke-width="3"/><path d="M288,438 l-0.5,-8" stroke-width="2.5"/>
    <path d="M308,430 l0,-9" stroke-width="2.8"/><path d="M328,435 l0.5,-10" stroke-width="3"/><path d="M348,428 l-1,-8" stroke-width="2.5"/>
    <path d="M368,433 l0,-9" stroke-width="2.8"/><path d="M388,438 l1,-10" stroke-width="3"/><path d="M408,430 l-0.5,-8" stroke-width="2.5"/>
    <path d="M428,435 l0,-9" stroke-width="2.8"/><path d="M448,428 l0.5,-10" stroke-width="3"/><path d="M468,433 l-1,-8" stroke-width="2.5"/>
    <path d="M488,438 l0,-9" stroke-width="2.8"/>
  </g>

  <g stroke="#3d5a2f" stroke-linecap="round" opacity="0.7">
    <path d="M12,475 l0,-10" stroke-width="3"/><path d="M32,480 l1,-9" stroke-width="2.5"/><path d="M52,472 l-1,-8" stroke-width="2.8"/>
    <path d="M72,478 l0.5,-10" stroke-width="3"/><path d="M92,475 l0,-9" stroke-width="2.5"/><path d="M112,482 l-0.5,-8" stroke-width="2.8"/>
    <path d="M132,472 l1,-10" stroke-width="3"/><path d="M152,478 l0,-9" stroke-width="2.5"/><path d="M172,475 l-1,-8" stroke-width="2.8"/>
    <path d="M192,480 l0.5,-10" stroke-width="3"/><path d="M212,472 l0,-9" stroke-width="2.5"/><path d="M232,478 l-0.5,-8" stroke-width="2.8"/>
    <path d="M252,475 l1,-10" stroke-width="3"/><path d="M272,482 l0,-9" stroke-width="2.5"/><path d="M292,472 l-1,-8" stroke-width="2.8"/>
    <path d="M312,478 l0.5,-10" stroke-width="3"/><path d="M332,475 l0,-9" stroke-width="2.5"/><path d="M352,480 l-0.5,-8" stroke-width="2.8"/>
    <path d="M372,472 l1,-10" stroke-width="3"/><path d="M392,478 l0,-9" stroke-width="2.5"/><path d="M412,475 l-1,-8" stroke-width="2.8"/>
    <path d="M432,482 l0.5,-10" stroke-width="3"/><path d="M452,472 l0,-9" stroke-width="2.5"/><path d="M472,478 l-0.5,-8" stroke-width="2.8"/>
    <path d="M492,475 l1,-10" stroke-width="3"/>
  </g>

  <!-- Small pebbles (occasional) -->
  <ellipse cx="95" cy="300" rx="3" ry="2" fill="#7a7a7a" opacity="0.25"/>
  <ellipse cx="420" cy="160" rx="2.5" ry="2" fill="#6a6a6a" opacity="0.2"/>
  <ellipse cx="300" cy="440" rx="3" ry="2" fill="#7a7a7a" opacity="0.22"/>
</svg>
