<?xml version="1.0" encoding="UTF-8"?>
<svg xmlns="http://www.w3.org/2000/svg" viewBox="0 0 100 100" width="100" height="100">
  <!-- Reed (Cattail) - Side view (~1.0m height)
       Classic wetland cattail with brown seed head
  -->

  <!-- Main stem -->
  <path d="M50,95 L50,25" stroke="#5A7A4A" stroke-width="3" fill="none"/>

  <!-- Brown cattail seed head (the distinctive sausage shape) -->
  <ellipse cx="50" cy="30" rx="6" ry="18" fill="#6B4423"/>
  <!-- Darker shading on seed head -->
  <ellipse cx="48" cy="30" rx="4" ry="16" fill="#5A3A1A" opacity="0.5"/>
  <!-- Highlight on seed head -->
  <ellipse cx="52" cy="28" rx="2" ry="10" fill="#7B5433" opacity="0.6"/>

  <!-- Spike above seed head -->
  <path d="M50,12 L50,5" stroke="#5A7A4A" stroke-width="2" fill="none"/>

  <!-- Left leaf blade (long, sword-like) -->
  <path d="M50,90
           Q35,70 30,50
           Q28,35 32,20
           L34,22
           Q32,38 35,52
           Q40,72 50,88 Z"
        fill="#4A6A3A"/>

  <!-- Right leaf blade -->
  <path d="M50,85
           Q65,65 70,45
           Q72,30 68,18
           L66,20
           Q68,33 65,47
           Q60,67 50,83 Z"
        fill="#5A7A4A"/>

  <!-- Leaf highlights -->
  <path d="M36,55 Q34,40 35,28" stroke="#6A8A5A" stroke-width="1" fill="none" opacity="0.5"/>
  <path d="M64,50 Q66,38 66,25" stroke="#6A8A5A" stroke-width="1" fill="none" opacity="0.5"/>

  <!-- Small background leaf -->
  <path d="M50,92
           Q58,75 62,58
           Q64,48 60,38
           L58,40
           Q60,50 58,60
           Q54,76 50,90 Z"
        fill="#4A6A3A" opacity="0.6"/>
</svg>
