<?xml version="1.0" encoding="UTF-8"?>
<!-- GrassTall Pattern - Long grass with seed heads, meadow feel (Rimworld-style)
     512x512 SVG covering 8x8 game tiles (64px per tile)
     VISUAL STYLE: Dirt/earth base with tall grass blades (6-12px) at ~50-60% coverage
     Seed heads on some blades for visual interest
     Must tile seamlessly (elements at edges wrap)
-->
<svg xmlns="http://www.w3.org/2000/svg" viewBox="0 0 512 512" width="512" height="512">
  <!-- Dirt/earth base color: #8B7355 (same as Grass) -->
  <rect width="512" height="512" fill="#8B7355"/>

  <!-- Earth tone variation patches -->
  <ellipse cx="80" cy="60" rx="50" ry="35" fill="#7A6345" opacity="0.25"/>
  <ellipse cx="320" cy="120" rx="65" ry="45" fill="#9B8B6B" opacity="0.2"/>
  <ellipse cx="180" cy="280" rx="55" ry="40" fill="#7A6345" opacity="0.2"/>
  <ellipse cx="420" cy="350" rx="70" ry="50" fill="#9B8B6B" opacity="0.15"/>
  <ellipse cx="100" cy="420" rx="45" ry="30" fill="#7A6345" opacity="0.2"/>
  <ellipse cx="480" cy="80" rx="40" ry="55" fill="#9B8B6B" opacity="0.18"/>

  <!-- Darker dirt speckles -->
  <circle cx="45" cy="95" r="3" fill="#5a4a3a" opacity="0.3"/>
  <circle cx="280" cy="75" r="3.5" fill="#5a4a3a" opacity="0.25"/>
  <circle cx="200" cy="180" r="3" fill="#5a4a3a" opacity="0.25"/>
  <circle cx="30" cy="320" r="2.5" fill="#5a4a3a" opacity="0.3"/>
  <circle cx="400" cy="420" r="3" fill="#5a4a3a" opacity="0.25"/>
  <circle cx="130" cy="480" r="3.5" fill="#5a4a3a" opacity="0.3"/>

  <!-- TALL GRASS BLADES - Higher density (~50-60% coverage), taller strokes (8-12px) -->
  <!-- Cluster 1 (top-left) with seed heads -->
  <path d="M35,55 l1,-11" stroke="#4a7c3f" stroke-width="2.5" stroke-linecap="round" opacity="0.9"/>
  <circle cx="36" cy="44" r="2" fill="#6a8c5f" opacity="0.8"/>
  <path d="M45,60 l0.5,-10" stroke="#3d6b32" stroke-width="2.2" stroke-linecap="round" opacity="0.85"/>
  <path d="M40,52 l-0.5,-9" stroke="#5a8c4f" stroke-width="2" stroke-linecap="round" opacity="0.8"/>
  <path d="M55,45 l0,-12" stroke="#4a7c3f" stroke-width="2.8" stroke-linecap="round" opacity="0.9"/>
  <circle cx="55" cy="33" r="2.5" fill="#7a9c6f" opacity="0.75"/>
  <path d="M65,58 l1,-10" stroke="#3d6b32" stroke-width="2.2" stroke-linecap="round" opacity="0.85"/>
  <path d="M75,50 l-0.5,-11" stroke="#5a8c4f" stroke-width="2.5" stroke-linecap="round" opacity="0.85"/>
  <path d="M85,55 l0,-9" stroke="#4a7c3f" stroke-width="2" stroke-linecap="round" opacity="0.8"/>

  <!-- Cluster 2 (top-center) -->
  <path d="M175,35 l0,-12" stroke="#4a7c3f" stroke-width="2.8" stroke-linecap="round" opacity="0.9"/>
  <circle cx="175" cy="23" r="2" fill="#6a8c5f" opacity="0.8"/>
  <path d="M185,42 l0.5,-11" stroke="#3d6b32" stroke-width="2.5" stroke-linecap="round" opacity="0.85"/>
  <path d="M195,38 l-0.5,-10" stroke="#5a8c4f" stroke-width="2.2" stroke-linecap="round" opacity="0.85"/>
  <path d="M205,30 l1,-12" stroke="#4a7c3f" stroke-width="2.8" stroke-linecap="round" opacity="0.9"/>
  <circle cx="206" cy="18" r="2.5" fill="#7a9c6f" opacity="0.75"/>
  <path d="M215,45 l0,-10" stroke="#3d6b32" stroke-width="2.2" stroke-linecap="round" opacity="0.8"/>

  <!-- Cluster 3 (top-right) -->
  <path d="M395,40 l0,-11" stroke="#4a7c3f" stroke-width="2.5" stroke-linecap="round" opacity="0.9"/>
  <path d="M405,35 l0.5,-12" stroke="#3d6b32" stroke-width="2.8" stroke-linecap="round" opacity="0.85"/>
  <circle cx="406" cy="23" r="2" fill="#6a8c5f" opacity="0.8"/>
  <path d="M415,45 l-0.5,-10" stroke="#5a8c4f" stroke-width="2.2" stroke-linecap="round" opacity="0.85"/>
  <path d="M430,38 l1,-11" stroke="#4a7c3f" stroke-width="2.5" stroke-linecap="round" opacity="0.9"/>
  <path d="M445,50 l0,-12" stroke="#3d6b32" stroke-width="2.8" stroke-linecap="round" opacity="0.85"/>
  <circle cx="445" cy="38" r="2.5" fill="#7a9c6f" opacity="0.75"/>
  <path d="M460,42 l-0.5,-10" stroke="#5a8c4f" stroke-width="2.2" stroke-linecap="round" opacity="0.8"/>

  <!-- Cluster 4 (center-left) -->
  <path d="M40,180 l0,-12" stroke="#4a7c3f" stroke-width="2.8" stroke-linecap="round" opacity="0.9"/>
  <circle cx="40" cy="168" r="2" fill="#6a8c5f" opacity="0.8"/>
  <path d="M50,185 l0.5,-11" stroke="#3d6b32" stroke-width="2.5" stroke-linecap="round" opacity="0.85"/>
  <path d="M60,175 l-0.5,-10" stroke="#5a8c4f" stroke-width="2.2" stroke-linecap="round" opacity="0.85"/>
  <path d="M75,190 l1,-12" stroke="#4a7c3f" stroke-width="2.8" stroke-linecap="round" opacity="0.9"/>
  <circle cx="76" cy="178" r="2.5" fill="#7a9c6f" opacity="0.75"/>
  <path d="M90,180 l0,-11" stroke="#3d6b32" stroke-width="2.5" stroke-linecap="round" opacity="0.85"/>
  <path d="M100,195 l-0.5,-10" stroke="#5a8c4f" stroke-width="2.2" stroke-linecap="round" opacity="0.8"/>

  <!-- Cluster 5 (center) -->
  <path d="M235,200 l0,-12" stroke="#4a7c3f" stroke-width="2.8" stroke-linecap="round" opacity="0.9"/>
  <circle cx="235" cy="188" r="2" fill="#6a8c5f" opacity="0.8"/>
  <path d="M248,210 l0.5,-11" stroke="#3d6b32" stroke-width="2.5" stroke-linecap="round" opacity="0.85"/>
  <path d="M260,195 l-0.5,-10" stroke="#5a8c4f" stroke-width="2.2" stroke-linecap="round" opacity="0.85"/>
  <path d="M275,205 l1,-12" stroke="#4a7c3f" stroke-width="2.8" stroke-linecap="round" opacity="0.9"/>
  <circle cx="276" cy="193" r="2.5" fill="#7a9c6f" opacity="0.75"/>
  <path d="M290,215 l0,-11" stroke="#3d6b32" stroke-width="2.5" stroke-linecap="round" opacity="0.85"/>
  <path d="M300,198 l-0.5,-10" stroke="#5a8c4f" stroke-width="2.2" stroke-linecap="round" opacity="0.8"/>

  <!-- Cluster 6 (center-right) -->
  <path d="M375,175 l0,-12" stroke="#4a7c3f" stroke-width="2.8" stroke-linecap="round" opacity="0.9"/>
  <circle cx="375" cy="163" r="2" fill="#6a8c5f" opacity="0.8"/>
  <path d="M388,185 l0.5,-11" stroke="#3d6b32" stroke-width="2.5" stroke-linecap="round" opacity="0.85"/>
  <path d="M400,180 l-0.5,-10" stroke="#5a8c4f" stroke-width="2.2" stroke-linecap="round" opacity="0.85"/>
  <path d="M415,190 l1,-12" stroke="#4a7c3f" stroke-width="2.8" stroke-linecap="round" opacity="0.9"/>
  <path d="M430,175 l0,-11" stroke="#3d6b32" stroke-width="2.5" stroke-linecap="round" opacity="0.85"/>
  <circle cx="430" cy="164" r="2.5" fill="#7a9c6f" opacity="0.75"/>
  <path d="M445,188 l-0.5,-10" stroke="#5a8c4f" stroke-width="2.2" stroke-linecap="round" opacity="0.8"/>

  <!-- Cluster 7 (bottom-left) -->
  <path d="M50,380 l0,-12" stroke="#4a7c3f" stroke-width="2.8" stroke-linecap="round" opacity="0.9"/>
  <circle cx="50" cy="368" r="2" fill="#6a8c5f" opacity="0.8"/>
  <path d="M65,390 l0.5,-11" stroke="#3d6b32" stroke-width="2.5" stroke-linecap="round" opacity="0.85"/>
  <path d="M80,375 l-0.5,-10" stroke="#5a8c4f" stroke-width="2.2" stroke-linecap="round" opacity="0.85"/>
  <path d="M95,385 l1,-12" stroke="#4a7c3f" stroke-width="2.8" stroke-linecap="round" opacity="0.9"/>
  <circle cx="96" cy="373" r="2.5" fill="#7a9c6f" opacity="0.75"/>
  <path d="M110,395 l0,-11" stroke="#3d6b32" stroke-width="2.5" stroke-linecap="round" opacity="0.85"/>

  <!-- Cluster 8 (bottom-center) -->
  <path d="M225,405 l0,-12" stroke="#4a7c3f" stroke-width="2.8" stroke-linecap="round" opacity="0.9"/>
  <path d="M238,395 l0.5,-11" stroke="#3d6b32" stroke-width="2.5" stroke-linecap="round" opacity="0.85"/>
  <circle cx="239" cy="384" r="2" fill="#6a8c5f" opacity="0.8"/>
  <path d="M255,410 l-0.5,-10" stroke="#5a8c4f" stroke-width="2.2" stroke-linecap="round" opacity="0.85"/>
  <path d="M270,400 l1,-12" stroke="#4a7c3f" stroke-width="2.8" stroke-linecap="round" opacity="0.9"/>
  <circle cx="271" cy="388" r="2.5" fill="#7a9c6f" opacity="0.75"/>
  <path d="M285,415 l0,-11" stroke="#3d6b32" stroke-width="2.5" stroke-linecap="round" opacity="0.85"/>

  <!-- Cluster 9 (bottom-right) -->
  <path d="M410,420 l0,-12" stroke="#4a7c3f" stroke-width="2.8" stroke-linecap="round" opacity="0.9"/>
  <circle cx="410" cy="408" r="2" fill="#6a8c5f" opacity="0.8"/>
  <path d="M425,430 l0.5,-11" stroke="#3d6b32" stroke-width="2.5" stroke-linecap="round" opacity="0.85"/>
  <path d="M440,415 l-0.5,-10" stroke="#5a8c4f" stroke-width="2.2" stroke-linecap="round" opacity="0.85"/>
  <path d="M455,425 l1,-12" stroke="#4a7c3f" stroke-width="2.8" stroke-linecap="round" opacity="0.9"/>
  <circle cx="456" cy="413" r="2.5" fill="#7a9c6f" opacity="0.75"/>
  <path d="M475,435 l0,-11" stroke="#3d6b32" stroke-width="2.5" stroke-linecap="round" opacity="0.85"/>

  <!-- Additional scattered tall grass for natural coverage -->
  <path d="M130,100 l0,-10" stroke="#4a7c3f" stroke-width="2.2" stroke-linecap="round" opacity="0.8"/>
  <path d="M320,80 l0.5,-11" stroke="#3d6b32" stroke-width="2.5" stroke-linecap="round" opacity="0.85"/>
  <circle cx="321" cy="69" r="2" fill="#6a8c5f" opacity="0.75"/>
  <path d="M490,250 l-0.5,-10" stroke="#5a8c4f" stroke-width="2.2" stroke-linecap="round" opacity="0.8"/>
  <path d="M145,280 l0,-11" stroke="#4a7c3f" stroke-width="2.5" stroke-linecap="round" opacity="0.85"/>
  <path d="M355,310 l0.5,-12" stroke="#3d6b32" stroke-width="2.8" stroke-linecap="round" opacity="0.85"/>
  <circle cx="356" cy="298" r="2.5" fill="#7a9c6f" opacity="0.75"/>
  <path d="M25,450 l0,-10" stroke="#5a8c4f" stroke-width="2.2" stroke-linecap="round" opacity="0.8"/>
  <path d="M175,475 l-0.5,-11" stroke="#4a7c3f" stroke-width="2.5" stroke-linecap="round" opacity="0.85"/>
  <path d="M345,490 l0,-10" stroke="#3d6b32" stroke-width="2.2" stroke-linecap="round" opacity="0.8"/>

  <!-- Small pebbles (fewer than Grass - more grass coverage) -->
  <ellipse cx="300" cy="440" rx="4" ry="3" fill="#7a7a7a" opacity="0.2"/>
  <ellipse cx="180" cy="50" rx="3" ry="2" fill="#6a6a6a" opacity="0.18"/>
</svg>
